<?xml version="1.0" encoding="UTF-8"?><svg id="Layer_1" xmlns="http://www.w3.org/2000/svg" viewBox="0 0 1901.78 421.58"><defs><style>.cls-1{fill:#fff;}</style></defs><g><path class="cls-1" d="M551.84,351.29c-13.11,.1-26.17-1.55-38.84-4.89-11.51-3.03-22.34-8.23-31.9-15.32l9.79-22.75c17.2,12.08,37.74,18.48,58.76,18.32,29.48,0,44.22-14.74,44.22-44.22v-24.32c-4.42,9.27-11.66,16.9-20.69,21.79-9.61,5.33-20.44,8.05-31.43,7.9-13.9,0-26.01-3.21-36.33-9.63-10.39-6.49-18.71-15.8-24-26.85-5.69-11.48-8.53-24.91-8.53-40.28s2.84-28.49,8.53-40c5.3-11.04,13.62-20.35,24-26.85,10.32-6.42,22.43-9.63,36.33-9.63,11.79,0,22.32,2.63,31.59,7.9,8.96,4.94,16.14,12.56,20.53,21.79v-26.81h31v141.2c0,24.21-6.21,42.38-18.64,54.49-12.43,12.11-30.56,18.17-54.39,18.16Zm-2.53-88.44c13.47,0,24.21-4.63,32.22-13.9,8.01-9.27,12.01-21.9,12-37.91,0-16-4-28.58-12-37.75-8-9.17-18.74-13.75-32.22-13.74-13.48,0-24.22,4.58-32.22,13.74-8,9.16-12,21.74-12,37.75s4,28.64,12,37.91c8,9.27,18.74,13.91,32.22,13.9Z"/><path class="cls-1" d="M717.36,294.43c-11.96,.09-23.87-1.56-35.36-4.89-10.95-3.26-20.11-7.84-27.48-13.74l9.16-21.48c7.87,5.52,16.56,9.78,25.74,12.63,9.14,2.92,18.68,4.41,28.27,4.43,11.16,0,19.58-2,25.27-6,5.69-4,8.53-9.37,8.53-16.11,0-5.47-1.89-9.74-5.68-12.79s-9.47-5.42-17.06-7.11l-30-6c-26.53-5.47-39.79-19.15-39.8-41.06,0-14.53,5.79-26.11,17.37-34.75s26.74-12.96,45.49-12.95c10.45-.04,20.85,1.55,30.8,4.74,9.15,2.78,17.53,7.65,24.48,14.21l-9.16,21.48c-6.42-5.53-13.81-9.81-21.8-12.63-7.79-2.88-16.02-4.37-24.32-4.43-10.95,0-19.26,2.05-24.95,6.16-5.49,3.71-8.7,9.97-8.53,16.59,0,10.53,6.95,17.27,20.84,20.21l30,6c13.69,2.73,24.07,7.36,31.12,13.89,7.05,6.53,10.58,15.38,10.58,26.54,0,14.74-5.79,26.27-17.37,34.59-11.58,8.32-26.96,12.48-46.14,12.47Z"/><path class="cls-1" d="M863.92,294.43c-11.96,.09-23.88-1.55-35.37-4.89-10.96-3.26-20.12-7.84-27.49-13.74l9.16-21.48c7.89,5.52,16.58,9.78,25.78,12.63,9.14,2.92,18.68,4.41,28.27,4.43,11.16,0,19.58-2,25.27-6,5.69-4,8.51-9.37,8.46-16.12,0-5.47-1.9-9.74-5.69-12.79-3.79-3.05-9.48-5.42-17.05-7.11l-30-6c-26.54-5.47-39.81-19.15-39.8-41.06,0-14.53,5.79-26.11,17.37-34.75,11.58-8.64,26.74-12.96,45.49-12.95,10.45-.04,20.84,1.55,30.79,4.74,9.15,2.78,17.53,7.64,24.48,14.21l-9.16,21.48c-6.41-5.53-13.8-9.81-21.79-12.63-7.79-2.88-16.02-4.37-24.32-4.43-10.96,0-19.29,2.05-25,6.16-5.48,3.72-8.7,9.97-8.53,16.59,0,10.53,6.95,17.27,20.85,20.21l30,6c13.69,2.73,24.06,7.36,31.11,13.89,7.05,6.53,10.58,15.38,10.59,26.54,0,14.74-5.79,26.27-17.38,34.59-11.59,8.32-26.93,12.48-46.04,12.48Z"/></g><path class="cls-1" d="M208.61,8.37C97.79,8.37,8,98.21,8,209.03s89.79,200.69,200.61,200.69,200.66-89.84,200.66-200.66S319.43,8.37,208.61,8.37Zm-60.35,131.43c1-52.23,59.38-100.35,59.38-100.35,0,0,60.36,37.88,59.36,100.35-.52,32.27-16.34,58-31.52,75.28,6.23-10.05,11.08-22.47,11.23-36.88,.44-41-78.36-42.23-78.18,0,0,12,4.86,23.74,11.09,33.87-15.62-18.77-31.89-44.96-31.36-72.27Zm-56.26,145.23c-52.75-15.05-71.6-73.16-71.6-73.16,0,0,54.6-40.28,98.6-27.56s71.6,73.16,71.6,73.16c0,0-45.82,42.61-98.6,27.56Zm76.52,45.17c.67-41.13,39.09-66.06,39.09-66.06,0,0,39.1,31.67,39.1,66.06,.03,42.18-78.82,41.12-78.16,0h-.03Zm157.09-45.15c-53.21,13.34-98.59-27.56-98.59-27.56,0,0,27.08-62.15,71.6-73.16,44.52-11.01,98.6,27.56,98.6,27.56,0,0-18.37,59.83-71.58,73.16h-.03Z"/><g><path class="cls-1" d="M1004.48,157.32c10.62-14.8,28.46-22.2,53.5-22.2,18.21,0,33.01,4.55,44.4,13.66s18.78,21.44,22.2,37h-19.35c-3.42-10.25-8.73-18.88-15.94-25.9-7.21-7.02-17.64-10.53-31.3-10.53-19.35,0-32.63,6.55-39.84,19.64-7.21,13.09-10.81,28.17-10.81,45.25s3.6,32.25,10.81,45.54c7.21,13.28,20.49,19.92,39.84,19.92s35.67-10.43,46.67-31.3c1.52-2.66,4.74-3.98,9.68-3.98h9.68c-3.79,14.8-11,26.66-21.63,35.57-10.62,8.92-25.42,13.38-44.4,13.38-25.04,0-42.88-7.3-53.5-21.91-10.62-14.61-15.94-33.68-15.94-57.2s5.31-41.74,15.94-56.92Z"/><path class="cls-1" d="M1163.29,172.12c2.66-24.67,22.2-37,58.63-37,19.73,0,34.63,2.94,44.68,8.82,10.06,5.88,15.08,15.27,15.08,28.17v70.01c0,34.15-24.29,51.23-72.86,51.23-37.19,0-55.78-14.42-55.78-43.26s21.25-44.78,63.75-50.09c14.8-2.28,25.23-5.12,31.3-8.54,10.25-5.31,15.37-11.76,15.37-19.35,0-15.18-13.66-22.77-40.98-22.77-24.29,0-37.76,7.59-40.41,22.77h-18.78Zm50.66,42.12c-27.32,4.55-40.98,16.32-40.98,35.29,0,20.11,11.95,30.17,35.86,30.17,35.67,0,53.5-11.95,53.5-35.86v-44.97c-8.35,6.07-24.47,11.19-48.38,15.37Z"/><path class="cls-1" d="M1390.96,137.4v17.08h-15.37c-11.38,0-20.78,3.98-28.17,11.95-7.4,7.97-11.1,16.89-11.1,26.75v98.47h-19.35v-95.62c0-15.56,5.22-29.22,15.65-40.98,10.44-11.76,24.19-17.64,41.27-17.64h17.08Z"/><path class="cls-1" d="M1438.77,100.4v64.89c3.79-9.11,10.34-16.41,19.64-21.91,9.3-5.5,19.64-8.25,31.02-8.25,24.66,0,42.4,7.49,53.22,22.48,10.81,14.99,16.22,33.87,16.22,56.63s-5.41,42.12-16.22,56.92c-10.82,14.8-28.55,22.2-53.22,22.2s-42.97-6.64-53.79-19.92-16.22-33.01-16.22-59.2V93.57h12.52c4.55,0,6.83,2.28,6.83,6.83Zm10.81,68.87c-7.21,13.28-10.81,28.27-10.81,44.97s3.6,32.25,10.81,45.54c7.21,13.28,20.49,19.92,39.84,19.92s32.63-6.64,39.84-19.92c7.21-13.28,10.81-28.46,10.81-45.54s-3.61-31.68-10.81-44.97c-7.21-13.28-20.49-19.92-39.84-19.92s-32.63,6.64-39.84,19.92Z"/><path class="cls-1" d="M1600.99,157.61c10.62-14.99,28.46-22.48,53.5-22.48s42.5,7.49,53.5,22.48c11,14.99,16.51,33.87,16.51,56.63s-5.5,42.12-16.51,56.92c-11,14.8-28.84,22.2-53.5,22.2s-42.88-7.4-53.5-22.2c-10.62-14.8-15.94-33.77-15.94-56.92s5.31-41.65,15.94-56.63Zm13.66,11.67c-7.21,13.28-10.81,28.27-10.81,44.97s3.6,32.25,10.81,45.54c7.21,13.28,20.49,19.92,39.84,19.92s32.63-6.64,39.84-19.92c7.21-13.28,10.81-28.46,10.81-45.54s-3.6-31.68-10.81-44.97c-7.21-13.28-20.49-19.92-39.84-19.92s-32.63,6.64-39.84,19.92Z"/><path class="cls-1" d="M1868.51,193.18c0-28.84-15.37-43.26-46.1-43.26s-46.67,14.42-46.67,43.26v98.47h-19.35v-95.62c0-19.73,5.22-34.81,15.65-45.25,10.44-10.44,27.23-15.65,50.37-15.65,43.64,0,65.46,20.3,65.46,60.9v95.62h-11.95c-4.93,0-7.4-2.47-7.4-7.4v-91.07Z"/></g></svg>