<svg xmlns="http://www.w3.org/2000/svg" width="71.251" height="32.441" viewBox="0 0 71.251 32.441">
  <g id="Orma_-_Logo_-_Negativo" data-name="Orma - Logo - Negativo" transform="translate(-27.318 -27)">
    <path id="Caminho_368" data-name="Caminho 368" d="M891.052,591.469c-3.671,0-5.112-2.534-5.112-5.924s1.441-5.926,5.112-5.926,5.112,2.534,5.112,5.926S894.724,591.469,891.052,591.469Zm0-9.178c-2,0-2.3,1.65-2.3,3.253,0,1.626.3,3.231,2.3,3.231,1.975,0,2.3-1.6,2.3-3.231C893.352,583.943,893.027,582.291,891.052,582.291Z" transform="translate(-831.423 -535.114)" fill="#fff"/>
    <path id="Caminho_369" data-name="Caminho 369" d="M1491.865,584.312a3.569,3.569,0,0,1,3.073,1.329,3.211,3.211,0,0,1,2.736-1.391c2.946,0,4.245,2.179,4.245,5.217v6.421h-2.544v-6.423c0-1.321-.214-2.481-1.7-2.481-1.527,0-1.59,1.672-1.59,2.922v5.982h-2.547v-6.423c0-1.321-.234-2.481-1.7-2.481-.891,0-1.548.291-1.548,1.241v7.662h-2.545V588.1a3.793,3.793,0,0,1,3.792-3.793Z" transform="translate(-1414.169 -539.597)" fill="#fff"/>
    <path id="Caminho_370" data-name="Caminho 370" d="M1269.063,584.4V581.62h-1.593a3.729,3.729,0,0,0-3.729,3.729v7.845h2.782v-7.346a1.446,1.446,0,0,1,1.446-1.445Z" transform="translate(-1197.255 -537.051)" fill="#fff"/>
    <path id="Caminho_371" data-name="Caminho 371" d="M1998.631,590.022v-6.917c0-2.157-2.11-3.525-4.15-3.525-2.063,0-3.7.766-4.426,2.6l2.272,1.06a2.206,2.206,0,0,1,2.249-1.2,1.569,1.569,0,0,1,1.53,1.554v.12a.322.322,0,0,1-.1.234,1.02,1.02,0,0,1-.648.223s-1.09-.023-1.739,0c-2.76.139-4.082,1.484-4.082,3.571,0,2.389,1.948,3.686,4.175,3.686a4.749,4.749,0,0,0,2.953-1.02v.807h1.964Zm-2.614-2.112a2.5,2.5,0,0,1-2.229,1.2c-.766,0-1.763-.441-1.763-1.369,0-1.114.881-1.552,1.833-1.576h1.414a1.492,1.492,0,0,0,.788-.209,4.831,4.831,0,0,1-.045,1.954Z" transform="translate(-1900.063 -535.075)" fill="#fff"/>
    <path id="Caminho_372" data-name="Caminho 372" d="M218.98,293.4a5.879,5.879,0,0,0,5.376-8.234l.007,0-4.886-10.478-2.96,1.38,4.749,10.183-.008,0,.069.146a2.6,2.6,0,1,1-3.587-1.183l.131-.071-1.379-2.957-.145.073a5.878,5.878,0,0,0,2.633,11.14Z" transform="translate(-179.888 -239.844)" fill="#fff"/>
    <path id="Caminho_373" data-name="Caminho 373" d="M49.565,42.284,42.437,27l-2.959,1.38,3.829,8.211-.007,0,3.449,7.4a8.5,8.5,0,1,1-13.774-2.219l.076-.079L31.6,38.58l-.158.135a11.774,11.774,0,1,0,18.123,3.569Z" transform="translate(0)" fill="#fff"/>
  </g>
</svg>
